<svg xmlns="http://www.w3.org/2000/svg" width="220" viewBox="0 0 662 84" fill="none"><g clip-path="url(#a)" fill="#000D36"><path d="M345.727 2.332h12.67l19.602 36.324h.174l19.603-36.324h12.642v63.83h-12.55v-39.47h-.183l-15.551 27.442h-8.233l-15.459-27.507h-.164v39.535h-12.551V2.332ZM416.739 44.224c0-13.126 9.349-22.658 23.372-22.658 13.666 0 23.29 9.148 23.29 22.659 0 13.51-9.624 22.74-23.29 22.74-14.023 0-23.372-9.614-23.372-22.74Zm34.706 0c0-7.19-4.857-12.138-11.334-12.138-6.824 0-11.398 5.26-11.398 12.139 0 6.878 4.675 12.138 11.416 12.138 6.276 0 11.316-4.949 11.316-12.139ZM480.854 60.767l-.174.091v5.306h-11.169V0h11.773v27.232h.092c3.329-3.769 7.912-5.662 13.309-5.662 11.892 0 20.765 9.44 20.765 22.75 0 13.574-8.901 22.649-21.131 22.649-5.927 0-10.336-2.178-13.465-6.202Zm22.658-16.365c0-7.547-5.04-12.313-11.324-12.313-6.751 0-11.425 5.214-11.425 12.313 0 7.098 5.04 11.965 11.507 11.965s11.224-4.95 11.224-11.965h.018ZM522.374 22.2h11.782v43.962h-11.782V22.199ZM544.31 0h11.782v66.163H544.31V0ZM566.163 22.2h11.773v43.962h-11.773V22.199ZM591.053 52.317V32.001H585.4v-9.797h5.653V7.906l11.782-1.253v15.55h5.663l4.171 9.798h-9.834v18.615c0 3.86.988 5.662 3.778 5.662a13.721 13.721 0 0 0 5.571-1.528l2.964 9.44c-2.744 1.528-5.662 2.745-11.59 2.745-7.556.036-12.505-4.73-12.505-14.618ZM633.534 63.463 615.916 22.2h12.587l10.693 26.967h.183l9.98-26.967h11.956L637.669 84h-11.956l7.821-20.536ZM528.265 13.06a6.366 6.366 0 1 0 .001-12.732 6.366 6.366 0 0 0-.001 12.732ZM572.045 13.06a6.367 6.367 0 1 0 0-12.734 6.367 6.367 0 0 0 0 12.734ZM0 2.332h13.492l12.404 43.066h.174L37.486 2.332h13.31l11.233 42.993h.274L74.707 2.332h13.484l-20.125 63.83H56.412L44.32 20.764h-.173L31.824 66.162H20.143L0 2.332ZM87.87 48.72V22.191h11.69v23.463c0 8.004 2.425 10.703 7.913 10.703 5.123 0 9.706-4.318 9.706-12.807v-21.35h11.891v43.963h-11.891V60.95l-.174-.092a16.54 16.54 0 0 1-12.953 6.11c-9.522 0-16.182-4.857-16.182-18.249ZM137.715 22.2h11.782v5.663h.219a18.066 18.066 0 0 1 14.023-6.294c9.349 0 15.917 5.04 15.917 18.524v26.07h-11.828V43.056c0-8.36-2.964-10.976-8.443-10.976-5.937 0-9.888 4.134-9.888 12.047v22.036h-11.782V22.2ZM186.16 44.32c0-13.31 8.992-22.75 20.765-22.75a17.007 17.007 0 0 1 13.309 5.717h.174V0h11.69v66.163h-11.233v-5.396h-.091c-3.055 3.951-7.647 6.202-13.575 6.202-12.139 0-21.039-9.075-21.039-22.65Zm34.705.082c0-7.099-4.765-12.313-11.507-12.313-6.294 0-11.242 4.766-11.242 12.313 0 7.016 4.674 11.965 11.242 11.965 6.568 0 11.507-4.766 11.507-11.965ZM281.274 48.005h-30.836c1.436 5.297 5.663 8.443 11.59 8.443a13.145 13.145 0 0 0 10.703-4.94l7.638 7.1c-3.659 4.765-9.349 8.36-19.146 8.36-13.483 0-23.015-9.074-23.015-22.869 0-13.391 9.257-22.566 22.292-22.566 12.414 0 21.04 9.348 21.04 22.21 0 1.472-.183 3.54-.266 4.262Zm-30.744-8.452h19.328c-1.171-4.674-4.317-7.693-9.458-7.693-4.748 0-8.526 2.653-9.87 7.693ZM288.016 22.198h11.773v6.404h.183a16.368 16.368 0 0 1 13.209-7.017h.915v12.862c-1.263-.092-2.433-.092-3.147-.092-7.318 0-11.151 4.849-11.151 11.508V66.16h-11.782V22.198Z"/></g><defs><clipPath id="a"><path fill="#fff" d="M0 0h661.315v83.999H0z"/></clipPath></defs></svg>